<?xml version="1.0" encoding="UTF-8"?>
<svg id="Layer_1" xmlns="http://www.w3.org/2000/svg" version="1.1" viewBox="0 0 792 612">
  <!-- Generator: Adobe Illustrator 29.3.1, SVG Export Plug-In . SVG Version: 2.1.0 Build 151)  -->
  <defs>
    <style>
      .st0 {
        fill: #fff;
      }

      .st1 {
        fill: none;
        stroke: #ff6500;
        stroke-width: 10px;
      }
    </style>
  </defs>
  <rect class="st1" x="334.5" y="244.5" width="123" height="123"/>
  <path class="st0" d="M382.11,344.71h-24.71v-9.45h24.71v9.45ZM368.36,310.22h2.78l-17.04,48.5h-10.46l21-59.04h10.21l21,59.04h-10.46l-17.04-48.5ZM412.98,359.56c-2.78,0-5.3-.27-7.55-.8-2.22-.53-4.46-1.31-6.71-2.32l.93-8.94c2.16,1.27,4.29,2.29,6.37,3.08,2.11.76,4.32,1.14,6.62,1.14,2.08,0,3.67-.34,4.77-1.01,1.1-.67,1.64-1.74,1.64-3.21,0-1.1-.3-2-.89-2.7-.56-.7-1.42-1.34-2.57-1.9-1.15-.56-2.59-1.17-4.3-1.81-2.59-.96-4.79-2-6.62-3.12-1.8-1.12-3.18-2.47-4.13-4.05-.93-1.6-1.39-3.57-1.39-5.9s.63-4.55,1.9-6.41c1.27-1.86,3.06-3.3,5.4-4.34,2.33-1.04,5.1-1.56,8.31-1.56,2.67,0,5.06.3,7.17.89,2.14.59,4.1,1.39,5.9,2.4l-.93,8.94c-1.88-1.32-3.78-2.4-5.69-3.25-1.91-.87-4.01-1.31-6.28-1.31-1.8,0-3.19.37-4.17,1.1-.98.73-1.48,1.77-1.48,3.12,0,1.63.69,2.85,2.07,3.67s3.58,1.81,6.62,2.99c1.97.76,3.67,1.55,5.1,2.36,1.46.82,2.67,1.71,3.63,2.7.96.98,1.66,2.11,2.11,3.37.48,1.24.72,2.67.72,4.3,0,2.67-.65,4.95-1.94,6.83-1.27,1.86-3.13,3.28-5.61,4.26-2.45.98-5.44,1.48-8.98,1.48ZM435.65,358.71v-11.47h10.96v11.47h-10.96Z"/>
</svg>